<svg width="16" height="28" viewBox="0 0 16 28" fill="none" xmlns="http://www.w3.org/2000/svg">
<path d="M1.37984 14.9128H4.44909V27.5484C4.44909 27.7979 4.65123 28 4.9007 28H10.1047C10.3542 28 10.5563 27.7979 10.5563 27.5484V14.9723H14.0847C14.3141 14.9723 14.5071 14.8002 14.5333 14.5723L15.0692 9.92049C15.0839 9.7925 15.0434 9.66434 14.9578 9.56832C14.872 9.47222 14.7494 9.41721 14.6207 9.41721H10.5565V6.50124C10.5565 5.62222 11.0298 5.17648 11.9634 5.17648C12.0964 5.17648 14.6207 5.17648 14.6207 5.17648C14.8701 5.17648 15.0723 4.97425 15.0723 4.72486V0.454955C15.0723 0.205484 14.8701 0.00334194 14.6207 0.00334194H10.9585C10.9327 0.00207742 10.8754 0 10.7908 0C10.1554 0 7.94674 0.124735 6.20207 1.72977C4.26898 3.5084 4.53769 5.63803 4.60191 6.00727V9.41712H1.37984C1.13036 9.41712 0.928223 9.61926 0.928223 9.86874V14.4611C0.928223 14.7106 1.13036 14.9128 1.37984 14.9128Z" fill="#B50E2F"/>
</svg>
