<svg width="26" height="21" viewBox="0 0 26 21" fill="none" xmlns="http://www.w3.org/2000/svg">
<path d="M23.9196 18.1752V7.38167C23.6198 7.71896 23.2966 8.02815 22.9499 8.30923C20.4389 10.2393 18.4432 11.8227 16.9629 13.0595C16.485 13.4624 16.0962 13.7763 15.7964 14.0011C15.4966 14.226 15.0913 14.4532 14.5807 14.6827C14.0701 14.9123 13.5899 15.0271 13.1402 15.0271H13.1261H13.1121C12.6623 15.0271 12.1822 14.9123 11.6715 14.6827C11.1609 14.4532 10.7557 14.226 10.4559 14.0011C10.156 13.7763 9.76721 13.4624 9.28937 13.0595C7.80901 11.8227 5.81333 10.2393 3.30234 8.30923C2.95567 8.02815 2.63243 7.71896 2.33261 7.38167V18.1752C2.33261 18.297 2.37711 18.4024 2.46612 18.4914C2.55513 18.5804 2.66054 18.6249 2.78234 18.6249H23.4699C23.5917 18.6249 23.6971 18.5804 23.7861 18.4914C23.8751 18.4024 23.9196 18.297 23.9196 18.1752ZM23.9196 3.40437V3.24977V3.06004C23.9196 3.06004 23.9173 2.99914 23.9126 2.87734C23.9079 2.75554 23.8939 2.69698 23.8704 2.70167C23.847 2.70635 23.8213 2.66419 23.7932 2.57518C23.765 2.48617 23.7229 2.45103 23.6667 2.46977C23.6104 2.48851 23.5449 2.4768 23.4699 2.43464H2.78234C2.66054 2.43464 2.55513 2.47914 2.46612 2.56815C2.37711 2.65716 2.33261 2.76257 2.33261 2.88437C2.33261 4.45842 3.02126 5.78887 4.39856 6.87572C6.20684 8.29986 8.0854 9.78491 10.0342 11.3309C10.0904 11.3777 10.2544 11.5159 10.5261 11.7454C10.7978 11.975 11.0133 12.1507 11.1726 12.2725C11.3319 12.3943 11.5404 12.5418 11.798 12.7152C12.0557 12.8885 12.2923 13.0173 12.5077 13.1017C12.7232 13.186 12.9247 13.2282 13.1121 13.2282H13.1261H13.1402C13.3276 13.2282 13.529 13.186 13.7445 13.1017C13.96 13.0173 14.1966 12.8885 14.4542 12.7152C14.7119 12.5418 14.9204 12.3943 15.0796 12.2725C15.2389 12.1507 15.4544 11.975 15.7261 11.7454C15.9978 11.5159 16.1618 11.3777 16.218 11.3309C18.1668 9.78491 20.0454 8.29986 21.8537 6.87572C22.3596 6.47284 22.8304 5.93176 23.2661 5.25248C23.7018 4.5732 23.9196 3.95716 23.9196 3.40437ZM25.7186 2.88437V18.1752C25.7186 18.7936 25.4984 19.3229 25.058 19.7633C24.6177 20.2036 24.0883 20.4238 23.4699 20.4238H2.78234C2.16396 20.4238 1.63459 20.2036 1.19423 19.7633C0.753872 19.3229 0.533691 18.7936 0.533691 18.1752V2.88437C0.533691 2.26599 0.753872 1.73662 1.19423 1.29626C1.63459 0.8559 2.16396 0.635719 2.78234 0.635719H23.4699C24.0883 0.635719 24.6177 0.8559 25.058 1.29626C25.4984 1.73662 25.7186 2.26599 25.7186 2.88437Z" fill="#B50E2F"/>
</svg>
